<?xml version="1.0" encoding="UTF-8" standalone="no"?>
<svg
   version="1.0"
   width="176.38889mm"
   height="176.40653mm"
   id="svg21"
   style="transform: scale(-1,1)"
   sodipodi:docname="x.wmf"
   xmlns:inkscape="http://www.inkscape.org/namespaces/inkscape"
   xmlns:sodipodi="http://sodipodi.sourceforge.net/DTD/sodipodi-0.dtd"
   xmlns="http://www.w3.org/2000/svg"
   xmlns:svg="http://www.w3.org/2000/svg">
  <sodipodi:namedview
     id="namedview23"
     pagecolor="#ffffff"
     bordercolor="#000000"
     borderopacity="0.25"
     inkscape:showpageshadow="2"
     inkscape:pageopacity="0.0"
     inkscape:pagecheckerboard="0"
     inkscape:deskcolor="#d1d1d1"
     inkscape:document-units="mm" />
  <defs
     id="defs3">
    <pattern
       id="WMFhbasepattern"
       patternUnits="userSpaceOnUse"
       width="6"
       height="6"
       x="0"
       y="0" />
  </defs>
  <path
     style="fill:#ffffff;fill-rule:evenodd;fill-opacity:1;stroke:none;"
     d="  M 568.80978,97.743108   L 568.87644,97.609761   L 563.74362,92.542588   L 558.6108,87.675434   L 553.34466,82.941627   L 548.14518,78.341167   L 542.81238,73.874054   L 537.47958,69.540287   L 532.01346,65.339867   L 526.614,61.272794   L 521.01456,57.272394   L 515.48178,53.472014   L 509.81568,49.80498   L 504.21624,46.271294   L 498.41682,42.80428   L 492.68406,39.537287   L 486.81798,36.40364   L 480.9519,33.40334   L 473.75262,29.869654   L 466.48668,26.60266   L 459.15408,23.469014   L 451.75482,20.60206   L 444.22224,17.868454   L 440.42262,16.534987   L 436.68966,15.334867   L 429.02376,13.0013   L 421.35786,10.934427   L 413.49198,8.9342268   L 405.6261,7.2007201   L 397.6269,5.6005601   L 389.6277,4.2670934   L 381.49518,3.0669734   L 373.296,2.0668734   L 365.03016,1.2667933   L 356.76432,0.73340667   L 356.76432,1.0001   L 333.89994,20.868754   L 352.56474,42.337567   L 352.83138,42.40424   L 353.83128,42.470914   L 360.83058,42.937627   L 364.2969,43.20432   L 367.82988,43.60436   L 374.76252,44.40444   L 381.69516,45.40454   L 388.49448,46.537987   L 395.2938,47.80478   L 401.9598,49.271594   L 408.6258,50.938427   L 415.15848,52.671934   L 421.69116,54.605461   L 428.09052,56.672334   L 434.48988,58.939227   L 440.75592,61.272794   L 447.02196,63.873054   L 453.15468,66.606661   L 459.35406,69.473614   L 464.6202,72.073874   L 469.88634,74.807481   L 475.08582,77.674434   L 480.2853,80.741407   L 485.35146,83.808381   L 490.48428,87.075374   L 495.48378,90.475714   L 500.48328,94.009401   L 505.34946,97.543088   L 510.21564,101.27679   L 515.01516,105.07717   L 519.81468,109.14425   L 524.48088,113.21132   L 529.21374,117.41174   L 533.81328,121.74551   L 538.47948,126.27929   L 538.47948,97.743108   L 568.80978,97.743108  z "
     id="path5" />
  <path
     style="fill:#ffffff;fill-rule:evenodd;fill-opacity:1;stroke:none;"
     d="  M 585.00816,114.81148   L 584.80818,115.0115   L 554.54454,112.87795   L 552.6114,141.21412   L 552.81138,141.48081   L 553.47798,142.21422   L 557.21094,146.48131   L 560.87724,150.88175   L 564.41022,155.28219   L 567.87654,159.81598   L 571.20954,164.28309   L 574.47588,168.88356   L 577.6089,173.48402   L 580.74192,178.15115   L 583.67496,182.81828   L 586.54134,187.55209   L 589.2744,192.2859   L 591.9408,197.15305   L 594.47388,202.0202   L 596.9403,206.95403   L 599.2734,211.88786   L 601.53984,216.95503   L 604.2729,223.55569   L 606.87264,230.2897   L 609.2724,237.0237   L 611.53884,243.95773   L 613.53864,250.82508   L 615.47178,257.89246   L 617.20494,264.95983   L 618.80478,272.16055   L 620.07132,279.36127   L 621.2712,286.69534   L 622.2711,294.0294   L 623.13768,301.56349   L 623.73762,309.0309   L 624.2709,316.69834   L 624.53754,324.36577   L 624.73752,332.16655   L 644.9355,311.96453   L 666.40002,333.36667   L 666.53334,333.36667   L 666.46668,327.43274   L 666.33336,321.63216   L 665.80008,310.09768   L 664.86684,298.69654   L 664.2669,293.0293   L 663.66696,287.49542   L 662.06712,276.36097   L 661.13388,270.89376   L 660.13398,265.49322   L 659.00076,260.026   L 657.86754,254.69214   L 656.601,249.35827   L 655.2678,244.09108   L 652.73472,235.15685   L 649.935,226.42264   L 646.86864,217.68844   L 643.66896,209.22092   L 640.13598,200.75341   L 636.40302,192.41924   L 632.40342,184.15175   L 628.13718,176.08428   L 623.6043,168.0168   L 618.80478,160.14935   L 613.73862,152.28189   L 608.53914,144.61446   L 603.00636,136.94703   L 597.2736,129.47961   L 591.2742,122.07887   L 585.00816,114.81148  z "
     id="path7" />
  <path
     style="fill:#ffffff;fill-rule:evenodd;fill-opacity:1;stroke:none;"
     d="  M 624.20424,352.96863   L 624.13758,353.96873   L 623.53764,360.90276   L 622.87104,367.83678   L 622.6044,369.50362   L 622.40442,371.23712   L 622.00446,374.70414   L 621.73782,376.37097   L 621.53784,378.10448   L 621.07122,381.57149   L 620.47128,384.90516   L 619.938,388.3055   L 619.2714,391.63916   L 619.07142,392.43924   L 618.9381,393.306   L 618.67146,395.0395   L 618.2715,396.63966   L 618.07152,397.43974   L 617.9382,398.3065   L 617.20494,401.64016   L 616.40502,404.90716   L 615.67176,408.24082   L 614.73852,411.44114   L 614.2719,413.0413   L 613.87194,414.70814   L 612.9387,417.90846   L 612.00546,421.17545   L 610.9389,424.3091   L 609.939,427.50942   L 607.73922,433.91006   L 606.53934,436.97703   L 605.33946,440.11068   L 604.07292,443.17765   L 602.87304,446.3113   L 600.20664,452.44524   L 597.47358,458.57919   L 594.74052,463.91306   L 591.9408,469.24692   L 589.00776,474.51412   L 588.20784,475.78091   L 587.47458,477.11438   L 586.00806,479.78131   L 582.80838,484.91516   L 579.54204,490.11568   L 576.14238,495.18285   L 572.6094,500.25003   L 568.9431,505.18385   L 565.14348,510.11768   L 563.14368,512.51792   L 562.14378,513.71804   L 561.21054,514.98483   L 557.21094,519.85199   L 555.07782,522.18555   L 553.01136,524.58579   L 548.81178,529.38627   L 544.41222,534.05341   L 542.14578,536.38697   L 539.946,538.78721   L 568.80978,538.78721   L 568.80978,569.05691   L 568.87644,569.05691   L 573.87594,563.85639   L 578.74212,558.65587   L 581.07522,555.98893   L 583.47498,553.38867   L 585.80808,550.72174   L 588.20784,548.12148   L 589.2744,546.72134   L 590.40762,545.38787   L 592.67406,542.72094   L 594.80718,539.98733   L 597.00696,537.3204   L 601.20654,531.85319   L 605.40612,526.38597   L 606.33936,524.91916   L 606.80598,524.18575   L 607.33926,523.51902   L 609.33906,520.71874   L 613.13868,515.11818   L 616.80498,509.38427   L 617.67156,507.91746   L 618.6048,506.51732   L 620.47128,503.71704   L 623.87094,497.84978   L 625.53744,494.91616   L 627.2706,492.0492   L 627.6039,491.24912   L 628.00386,490.51572   L 628.80378,489.0489   L 630.40362,486.11528   L 633.53664,480.24802   L 636.86964,473.0473   L 640.13598,465.84658   L 641.6025,462.17955   L 643.13568,458.57919   L 646.00206,451.24512   L 648.6018,443.77771   L 648.86844,442.77761   L 649.20174,441.84418   L 649.86834,439.97733   L 651.13488,436.24362   L 653.40132,428.64286   L 655.6011,421.0421   L 656.53434,417.10838   L 657.46758,413.24132   L 657.86754,411.24112   L 658.06752,410.24102   L 658.33416,409.3076   L 659.20074,405.44054   L 659.934,401.44014   L 660.73392,397.50642   L 661.40052,393.50602   L 661.73382,391.50582   L 662.13378,389.57229   L 662.66706,385.50522   L 663.267,381.50482   L 664.33356,373.37067   L 664.73352,369.23692   L 665.13348,365.16985   L 665.46678,361.0361   L 665.6001,358.96923   L 665.80008,356.96903   L 665.53344,356.90236   L 645.66876,333.96673   L 624.20424,352.63526   L 624.20424,352.96863  z "
     id="path9" />
  <path
     style="fill:#ffffff;fill-rule:evenodd;fill-opacity:1;stroke:none;"
     d="  M 333.23334,0.13334667   L 333.23334,0   L 321.83448,0.13334667   L 310.56894,0.66673334   L 299.43672,1.4668133   L 293.90394,2.0002   L 288.50448,2.6669334   L 277.6389,4.1337467   L 267.03996,6.0006001   L 261.70716,7.0007001   L 256.50768,8.1341467   L 246.17538,10.734407   L 237.04296,13.134647   L 228.17718,15.868253   L 219.3114,18.80188   L 210.6456,22.135547   L 202.04646,25.60256   L 193.58064,29.40294   L 185.18148,33.40334   L 176.9823,37.80378   L 168.78312,42.337567   L 160.71726,47.138047   L 152.71806,52.205221   L 144.91884,57.605761   L 137.11962,63.139647   L 129.58704,69.006901   L 122.05446,75.140847   L 114.72186,81.541487   L 114.92184,81.808181   L 112.78872,112.0112   L 141.18588,114.0114   L 141.38586,113.81138   L 142.11912,113.14465   L 146.51868,109.21092   L 151.05156,105.47721   L 155.58444,101.81018   L 160.25064,98.276494   L 164.85018,94.742808   L 169.58304,91.475814   L 174.3159,88.208821   L 179.18208,85.141848   L 188.84778,79.207921   L 193.78062,76.340967   L 198.78012,73.740707   L 203.77962,71.140447   L 208.84578,68.673534   L 213.91194,66.339967   L 219.11142,64.139747   L 225.57744,61.406141   L 232.17678,58.872554   L 238.77612,56.538987   L 245.57544,54.405441   L 252.37476,52.405241   L 259.3074,50.605061   L 266.24004,48.938227   L 273.306,47.471414   L 280.37196,46.137947   L 287.57124,45.0045   L 294.77052,44.0044   L 302.10312,43.20432   L 309.43572,42.537587   L 316.90164,42.137547   L 324.43422,41.870854   L 332.10012,41.80418   L 311.76882,21.535487   L 333.23334,0.13334667  z "
     id="path11" />
  <path
     style="fill:#ffffff;fill-rule:evenodd;fill-opacity:1;stroke:none;"
     d="  M 97.6569,128.07947   L 97.6569,97.743108   L 97.59024,97.676434   L 97.52358,97.676434   L 92.39076,102.74361   L 87.52458,107.87745   L 82.79172,113.07797   L 78.19218,118.41184   L 73.6593,123.67903   L 69.3264,129.07957   L 65.12682,134.54679   L 61.06056,140.08067   L 56.9943,145.61456   L 53.19468,151.21512   L 49.52838,156.88235   L 45.9954,162.61626   L 42.59574,168.35017   L 39.3294,174.21742   L 36.19638,180.08468   L 33.19668,186.08528   L 29.73036,193.15265   L 26.46402,200.42004   L 23.39766,207.68744   L 20.53128,215.08818   L 17.79822,222.48892   L 15.3318,230.08968   L 12.9987,237.69044   L 10.93224,245.42454   L 8.93244,253.15865   L 7.19928,261.0261   L 5.59944,268.89356   L 4.26624,276.96103   L 3.06636,285.0285   L 2.06646,293.22932   L 1.26654,301.43014   L 0.73326,309.83098   L 0.9999,309.89766   L 20.86458,332.76661   L 42.52908,313.96473   L 42.46242,313.83138   L 42.52908,313.83138   L 40.86258,313.69804   L 40.92924,312.69794   L 42.59574,312.83128   L 43.06236,305.69724   L 43.72896,298.69654   L 44.52888,291.76251   L 45.52878,284.96183   L 46.662,278.16115   L 47.92854,271.42714   L 49.3284,264.75981   L 50.9949,258.22582   L 52.6614,251.62516   L 54.59454,245.15785   L 56.661,238.75721   L 58.92744,232.42324   L 61.26054,226.08928   L 63.79362,219.88866   L 66.52668,213.75471   L 69.39306,207.75411   L 71.9928,202.35357   L 74.72586,197.0197   L 80.6586,186.55199   L 83.72496,181.35147   L 86.9913,176.2843   L 90.39096,171.21712   L 93.92394,166.28329   L 97.45692,161.28279   L 101.25654,156.34897   L 105.05616,151.48181   L 109.12242,146.74801   L 113.18868,141.94753   L 117.45492,137.28039   L 121.78782,132.61326   L 126.38736,128.07947   L 97.6569,128.07947  z "
     id="path13" />
  <path
     style="fill:#ffffff;fill-rule:evenodd;fill-opacity:1;stroke:none;"
     d="  M 41.92914,334.36677   L 41.86248,334.36677   L 21.46452,354.83548   L 0.06666,333.36667   L 0,333.36667   L 0,338.90056   L 0.13332,344.50112   L 0.26664,350.035   L 0.59994,355.63556   L 0.93324,361.0361   L 1.39986,366.50332   L 1.93314,371.90386   L 2.59974,377.37107   L 3.19968,382.63826   L 3.9996,387.97213   L 4.79952,393.23932   L 5.79942,398.57319   L 6.79932,403.70704   L 7.93254,408.90756   L 9.06576,414.0414   L 10.39896,419.24192   L 12.79872,428.3095   L 15.53178,437.3104   L 16.93164,441.71084   L 18.46482,446.17795   L 21.79782,454.97883   L 23.46432,459.24592   L 25.26414,463.57969   L 27.13062,467.84678   L 29.13042,472.18055   L 31.06356,476.38097   L 33.13002,480.64806   L 37.52958,489.0489   L 39.72936,493.11598   L 42.06246,497.24972   L 46.86198,505.38387   L 49.3284,509.38427   L 51.92814,513.45135   L 54.59454,517.38507   L 57.39426,521.38547   L 60.12732,525.25253   L 62.9937,529.18625   L 65.86008,532.98663   L 68.85978,536.85369   L 74.9925,544.45445   L 78.19218,548.18815   L 81.52518,551.98853   L 111.92214,553.92206   L 113.92194,525.25253   L 113.85528,525.18585   L 112.58874,526.3193   L 111.92214,525.58589   L 113.18868,524.45245   L 109.18908,519.85199   L 105.38946,515.25153   L 101.6565,510.58439   L 98.12352,505.91726   L 94.59054,501.11678   L 91.25754,496.38297   L 87.9912,491.58249   L 84.85818,486.78201   L 81.72516,481.78151   L 78.85878,476.84768   L 75.9924,471.84718   L 73.39266,466.84668   L 70.79292,461.71284   L 68.3265,456.57899   L 65.92674,451.37847   L 63.72696,446.24462   L 61.06056,439.71064   L 58.59414,433.17665   L 56.3277,426.50932   L 54.26124,419.84198   L 52.26144,413.0413   L 50.46162,406.24062   L 49.59504,402.77361   L 48.86178,399.37327   L 47.46192,392.43924   L 46.12872,385.37187   L 44.9955,378.3045   L 44.06226,371.10378   L 43.329,363.90306   L 42.6624,356.56899   L 42.26244,349.23492   L 42.06246,345.50122   L 41.9958,341.83418   L 41.92914,334.36677  z "
     id="path15" />
  <path
     style="fill:#ffffff;fill-rule:evenodd;fill-opacity:1;stroke:none;"
     d="  M 334.23324,624.79581   L 354.6312,645.19785   L 333.23334,666.66667   L 333.3,666.73334   L 339.03276,666.66667   L 344.83218,666.53332   L 350.56494,666.26663   L 356.2977,665.99993   L 361.89714,665.59989   L 364.69686,665.3332   L 366.09672,665.19985   L 367.56324,665.13318   L 373.16268,664.53312   L 375.9624,664.19975   L 378.82878,663.93306   L 384.2949,663.13298   L 389.82768,662.3329   L 395.22714,661.39947   L 400.69326,660.39937   L 406.02606,659.26593   L 408.69246,658.66587   L 411.42552,658.13248   L 416.75832,656.86569   L 422.09112,655.53222   L 426.49068,654.26543   L 428.69046,653.59869   L 430.9569,652.99863   L 433.09002,652.26523   L 435.2898,651.59849   L 439.68936,650.19835   L 448.35516,647.13138   L 452.6214,645.53122   L 456.9543,643.93106   L 459.02076,642.99763   L 461.15388,642.13088   L 465.42012,640.39737   L 469.55304,638.53052   L 473.75262,636.66367   L 482.01846,632.66327   L 486.08472,630.52972   L 490.21764,628.39617   L 498.21684,623.86239   L 502.14978,621.46215   L 506.14938,619.06191   L 514.01526,613.99473   L 517.88154,611.39447   L 519.81468,610.06101   L 521.81448,608.79421   L 529.41372,603.26033   L 533.14668,600.39337   L 535.01316,598.92656   L 535.9464,598.19315   L 536.9463,597.52642   L 537.81288,596.72634   L 538.74612,595.99293   L 540.6126,594.52612   L 544.34556,591.52582   L 546.14538,589.92566   L 548.01186,588.39217   L 551.74482,585.25853   L 551.54484,585.05851   L 553.67796,554.78881   L 525.14748,552.85529   L 525.01416,552.92196   L 526.08072,554.18875   L 525.34746,554.85549   L 524.2809,553.58869   L 519.81468,557.3224   L 515.41512,560.98943   L 510.88224,564.58979   L 508.6158,566.3233   L 508.01586,566.72334   L 507.48258,567.19005   L 506.41602,568.12348   L 501.81648,571.45715   L 499.48338,573.05731   L 497.21694,574.72414   L 492.55074,577.92446   L 491.35086,578.65787   L 490.21764,579.45795   L 487.9512,581.05811   L 483.15168,583.99173   L 480.75192,585.39187   L 478.41882,586.85869   L 475.9524,588.19215   L 473.55264,589.59229   L 468.75312,592.25923   L 463.82028,594.79281   L 458.88744,597.25973   L 456.35436,598.39317   L 453.88794,599.59329   L 448.9551,601.86019   L 442.2891,604.52712   L 440.55594,605.12718   L 438.88944,605.79391   L 435.55644,607.12738   L 428.75712,609.52762   L 421.9578,611.79451   L 415.02516,613.79471   L 411.49218,614.72814   L 408.02586,615.72824   L 400.9599,617.39507   L 393.89394,618.99523   L 392.02746,619.26193   L 391.09422,619.39527   L 390.22764,619.59529   L 386.628,620.26203   L 384.76152,620.52872   L 383.82828,620.66207   L 382.9617,620.86209   L 379.36206,621.46215   L 372.02946,622.39557   L 368.2965,622.79561   L 366.43002,622.99563   L 364.6302,623.26233   L 360.83058,623.52902   L 357.09762,623.86239   L 356.09772,623.86239   L 355.16448,623.92906   L 353.298,624.06241   L 349.56504,624.3291   L 345.69876,624.46245   L 341.89914,624.59579   L 338.03286,624.66247   L 334.23324,624.79581  z "
     id="path17" />
  <path
     style="fill:#ffffff;fill-rule:evenodd;fill-opacity:1;stroke:none;"
     d="  M 313.90194,624.26243   L 313.70196,624.26243   L 313.56864,625.86259   L 312.6354,625.79591   L 312.70206,624.19575   L 305.70276,623.59569   L 298.77012,622.92896   L 291.90414,622.06221   L 285.17148,621.12878   L 278.43882,619.99533   L 271.77282,618.72854   L 265.17348,617.3284   L 258.70746,615.79491   L 252.17478,613.99473   L 245.77542,612.19455   L 239.44272,610.12768   L 233.24334,607.99413   L 226.9773,605.66057   L 220.84458,603.19365   L 214.77852,600.59339   L 208.84578,597.85979   L 203.313,595.12618   L 197.91354,592.3259   L 192.58074,589.3256   L 187.3146,586.3253   L 182.04846,583.12498   L 176.84898,579.85799   L 171.71616,576.45765   L 166.71666,572.92396   L 161.6505,569.25693   L 156.651,565.45655   L 151.71816,561.52282   L 146.91864,557.52242   L 142.05246,553.322   L 137.3196,549.05491   L 132.58674,544.58779   L 127.9872,540.12068   L 127.92054,540.18735   L 127.92054,569.05691   L 97.59024,569.05691   L 102.72306,574.05741   L 107.92254,579.05791   L 113.18868,583.79171   L 118.58814,588.52552   L 123.9876,592.99263   L 129.45372,597.45975   L 134.9865,601.72684   L 140.58594,605.92726   L 146.18538,609.86099   L 151.85148,613.72804   L 157.58424,617.39507   L 163.45032,621.06211   L 169.24974,624.46245   L 175.18248,627.86279   L 181.18188,630.99643   L 187.24794,634.13008   L 194.24724,637.46375   L 201.44652,640.66407   L 208.6458,643.59769   L 215.9784,646.46465   L 223.311,649.06491   L 230.77692,651.53182   L 238.3095,653.79871   L 245.9754,655.93226   L 253.6413,657.79911   L 261.44052,659.53262   L 269.23974,660.99943   L 277.23894,662.39957   L 285.17148,663.53302   L 293.304,664.53312   L 301.43652,665.3332   L 309.70236,665.99993   L 309.76902,665.73324   L 332.6334,645.86459   L 313.90194,624.26243  z "
     id="path19" />
</svg>
